<?xml version="1.0" standalone="no"?>
<!DOCTYPE svg PUBLIC "-//W3C//DTD SVG 20010904//EN"
 "http://www.w3.org/TR/2001/REC-SVG-20010904/DTD/svg10.dtd">
<svg version="1.0" xmlns="http://www.w3.org/2000/svg"
 width="500.000000pt" height="500.000000pt" viewBox="0 0 500.000000 500.000000"
 preserveAspectRatio="xMidYMid meet">

<g transform="translate(0.000000,500.000000) scale(0.100000,-0.100000)"
fill="#000000" stroke="none">
<path d="M2337 4189 c-569 -66 -1082 -425 -1325 -929 -60 -125 -88 -199 -116
-308 -43 -171 -51 -239 -50 -427 0 -290 49 -487 190 -768 151 -302 431 -582
729 -730 555 -275 1228 -225 1720 128 362 259 595 622 687 1070 30 148 33 439
4 590 -49 267 -181 556 -345 755 -285 348 -679 563 -1131 619 -95 12 -261 12
-363 0z m-346 -769 c12 0 7 -233 -5 -267 -10 -29 7 -30 34 -3 15 15 20 33 20
75 0 56 4 61 48 56 8 -1 12 16 12 57 0 67 22 99 60 87 20 -6 21 -11 17 -128
-2 -67 -7 -132 -11 -145 -8 -20 -6 -21 15 -14 31 12 49 47 49 99 0 38 2 42 28
45 23 2 27 8 28 33 1 86 4 95 29 107 19 8 28 8 40 -2 21 -17 21 -196 0 -247
-19 -45 -19 -46 8 -38 35 11 47 34 47 92 0 49 2 53 24 53 27 0 36 21 36 86 0
49 19 69 55 60 25 -6 25 -7 25 -124 0 -92 -4 -123 -16 -140 -19 -27 -14 -36
16 -27 26 8 40 43 40 101 0 42 1 44 30 44 30 0 30 0 30 58 0 68 22 99 60 87
21 -7 21 -11 18 -128 -2 -67 -8 -130 -12 -139 -6 -14 -4 -18 11 -18 32 0 43
21 43 82 0 58 0 58 30 58 30 0 30 1 30 55 0 42 5 60 20 75 23 23 41 25 58 8
18 -18 16 -200 -2 -243 -19 -46 -1 -58 31 -21 18 21 23 39 23 82 0 30 2 54 5
54 4 0 19 -7 35 -15 59 -30 60 -36 60 -307 l0 -247 -41 -12 c-51 -16 -133 -88
-161 -143 -12 -23 -23 -68 -26 -106 -4 -59 -8 -68 -39 -93 -60 -51 -62 -62
-64 -311 -1 -213 0 -228 20 -262 12 -19 21 -37 21 -40 0 -2 -198 -4 -441 -4
-481 0 -481 0 -524 58 -19 26 -20 45 -23 703 l-2 675 22 35 c13 19 42 43 64
53 40 19 42 21 46 74 5 57 28 88 56 77 8 -3 18 -5 23 -5z m1237 -762 c18 -5
54 -31 81 -57 56 -55 81 -119 81 -208 0 -42 3 -53 16 -53 9 0 29 -14 45 -31
l29 -31 0 -219 0 -219 -34 -38 -34 -37 -271 -3 c-370 -4 -351 -21 -351 298 0
235 4 250 67 276 31 14 32 16 27 58 -13 93 49 211 133 252 70 33 131 37 211
12z"/>
<path d="M3055 2561 c-16 -10 -37 -27 -47 -37 -21 -25 -38 -91 -33 -129 2 -16
4 -36 4 -42 1 -10 39 -13 156 -13 l155 0 0 68 c0 78 -20 120 -72 152 -43 26
-122 27 -163 1z m6 -91 c-7 -3 -9 -14 -5 -23 3 -10 1 -17 -5 -17 -6 0 -11 -8
-11 -17 -1 -16 -2 -16 -10 -2 -5 9 -8 29 -7 46 2 25 5 29 25 25 14 -3 19 -7
13 -12z"/>
<path d="M3099 2132 c-25 -21 -30 -71 -9 -96 15 -19 83 -21 98 -3 6 6 13 24
17 39 5 21 1 33 -19 52 -30 31 -55 33 -87 8z"/>
</g>
</svg>
